<?xml version="1.0" encoding="UTF-8"?>
<!DOCTYPE svg PUBLIC "-//W3C//DTD SVG 1.1//EN" "http://www.w3.org/Graphics/SVG/1.1/DTD/svg11.dtd">
<!-- Creator: CorelDRAW X7 -->
<svg xmlns="http://www.w3.org/2000/svg" xml:space="preserve" width="105mm" height="84mm" version="1.1" style="shape-rendering:geometricPrecision; text-rendering:geometricPrecision; image-rendering:optimizeQuality; fill-rule:evenodd; clip-rule:evenodd"
viewBox="0 0 10500 8400"
 xmlns:xlink="http://www.w3.org/1999/xlink">
 <defs>
  <style type="text/css">
   <![CDATA[
    .fil0 {fill:#BAC4CE}
    .fil1 {fill:#E06500;fill-rule:nonzero}
   ]]>
  </style>
 </defs>
 <g id="Слой_x0020_1">
  <metadata id="CorelCorpID_0Corel-Layer"/>
  <g id="_973955920">
   <rect class="fil0" transform="matrix(2.12995E-014 -8.35041 0.804223 2.21157E-013 1506.24 6714.9)" width="661" height="172"/>
   <path class="fil1" d="M3655 4395l0 -1028 -202 0 0 646 -440 -646 -207 0 0 1028 202 0 0 -671 452 671 195 0zm687 18c287,0 496,-222 496,-532 0,-309 -209,-531 -496,-531 -286,0 -495,222 -495,531 0,310 209,532 495,532zm0 -194c-175,0 -287,-146 -287,-338 0,-192 112,-337 287,-337 175,0 288,145 288,337 0,192 -113,338 -288,338zm1426 176c297,0 504,-204 504,-514 0,-309 -207,-514 -504,-514l-374 0 0 1028 374 0zm0 -193l-172 0 0 -643 172 0c195,0 297,141 297,322 0,175 -109,321 -297,321zm1533 193l-365 -1028 -253 0 -367 1028 230 0 60 -174 407 0 58 174 230 0zm-344 -367l-295 0 148 -443 147 443zm814 367l0 -836 276 0 0 -192 -756 0 0 192 277 0 0 836 203 0zm1249 0l-366 -1028 -253 0 -366 1028 230 0 60 -174 406 0 59 174 230 0zm-344 -367l-296 0 148 -443 148 443z"/>
   <rect class="fil0" x="1645" y="6577" width="7743" height="138"/>
   <rect class="fil0" x="1113" y="6577" width="532" height="138"/>
   <rect class="fil0" transform="matrix(2.12995E-014 -0.804224 0.804223 2.12995E-014 9249.07 7108.56)" width="661" height="172"/>
   <rect class="fil0" x="1113" y="4782" width="532" height="138"/>
   <rect class="fil0" x="1113" y="2986" width="532" height="138"/>
   <rect class="fil0" transform="matrix(2.12995E-014 -0.804224 0.804223 2.12995E-014 6668.13 7108.56)" width="661" height="172"/>
   <rect class="fil0" transform="matrix(2.12995E-014 -0.804224 0.804223 2.12995E-014 4087.18 7108.56)" width="661" height="172"/>
   <rect class="fil0" x="1115" y="1191" width="532" height="138"/>
   <rect class="fil0" transform="matrix(2.12995E-014 -0.804224 0.804223 2.12995E-014 1506.24 7108.56)" width="661" height="172"/>
  </g>
 </g>
</svg>
